<svg xmlns="http://www.w3.org/2000/svg" version="1.1" width="600px" height="600px" viewBox="0 0 200 200" style="overflow:hidden!important;"><defs id="SvgjsDefs4529"><radialGradient id="SvgjsRadialGradient5352" cx="-568.659" cy="-521.042" r="59.751" gradientTransform="matrix(0.096 -0.0248 0.0245 0.0961 141.2814 119.9893)" gradientUnits="userSpaceOnUse" class="svga-on-canvas-eyesiris-gradient-left-1"><stop id="SvgjsStop5353" stop-opacity="1" stop-color="#ffffff" offset="0" ></stop><stop id="SvgjsStop5354" stop-opacity="0" stop-color="#ffffff" offset="1" ></stop></radialGradient><radialGradient id="SvgjsRadialGradient5356" cx="-582.838" cy="-519.099" r="59.745" gradientTransform="matrix(0.0991 8.856319e-004 -0.0011 0.0991 131.1134 135.9855)" gradientUnits="userSpaceOnUse" class="svga-on-canvas-eyesiris-gradient-left-2"><stop id="SvgjsStop5357" stop-opacity="1" stop-color="#ffffff" offset="0" ></stop><stop id="SvgjsStop5358" stop-opacity="0" stop-color="#ffffff" offset="1" ></stop></radialGradient><linearGradient id="SvgjsLinearGradient5362" x1="122.67" y1="88.268" x2="123.606" y2="87.152" gradientTransform="matrix(1 0 0 1 -52 0)" gradientUnits="userSpaceOnUse" class="svga-on-canvas-eyesiris-gradient-left-5"><stop id="SvgjsStop5363" stop-opacity="1" stop-color="#ffffff" offset="0" ></stop><stop id="SvgjsStop5364" stop-opacity="0" stop-color="#ffffff" offset="1" ></stop></linearGradient><linearGradient id="SvgjsLinearGradient5366" x1="127.212" y1="82.296" x2="126.463" y2="83.189" gradientTransform="matrix(1 0 0 1 -52 0)" gradientUnits="userSpaceOnUse" class="svga-on-canvas-eyesiris-gradient-left-6"><stop id="SvgjsStop5367" stop-opacity="1" stop-color="#ffffff" offset="0" ></stop><stop id="SvgjsStop5368" stop-opacity="0" stop-color="#ffffff" offset="1" ></stop></linearGradient><linearGradient id="SvgjsLinearGradient5370" x1="129.636" y1="79.822" x2="127.91" y2="81.879" gradientTransform="matrix(1 0 0 1 -52 0)" gradientUnits="userSpaceOnUse" class="svga-on-canvas-eyesiris-gradient-left-7"><stop id="SvgjsStop5371" stop-opacity="1" stop-color="#ffffff" offset="0" ></stop><stop id="SvgjsStop5372" stop-opacity="0" stop-color="#ffffff" offset="1" ></stop></linearGradient><radialGradient id="SvgjsRadialGradient5375" cx="-568.654" cy="-521.042" r="59.752" gradientTransform="matrix(0.096 -0.0248 0.0245 0.0961 193.2804 119.9894)" gradientUnits="userSpaceOnUse" class="svga-on-canvas-eyesiris-gradient-right-1"><stop id="SvgjsStop5376" stop-opacity="1" stop-color="#ffffff" offset="0" ></stop><stop id="SvgjsStop5377" stop-opacity="0" stop-color="#ffffff" offset="1" ></stop></radialGradient><radialGradient id="SvgjsRadialGradient5379" cx="-582.833" cy="-519.102" r="59.747" gradientTransform="matrix(0.0991 8.856319e-004 -0.0011 0.0991 183.1126 135.9856)" gradientUnits="userSpaceOnUse" class="svga-on-canvas-eyesiris-gradient-right-2"><stop id="SvgjsStop5380" stop-opacity="1" stop-color="#ffffff" offset="0" ></stop><stop id="SvgjsStop5381" stop-opacity="0" stop-color="#ffffff" offset="1" ></stop></radialGradient><linearGradient id="SvgjsLinearGradient5385" x1="122.67" y1="88.268" x2="123.606" y2="87.152" gradientUnits="userSpaceOnUse" class="svga-on-canvas-eyesiris-gradient-right-5"><stop id="SvgjsStop5386" stop-opacity="1" stop-color="#ffffff" offset="0" ></stop><stop id="SvgjsStop5387" stop-opacity="0" stop-color="#ffffff" offset="1" ></stop></linearGradient><linearGradient id="SvgjsLinearGradient5389" x1="127.212" y1="82.296" x2="126.463" y2="83.189" gradientUnits="userSpaceOnUse" class="svga-on-canvas-eyesiris-gradient-right-6"><stop id="SvgjsStop5390" stop-opacity="1" stop-color="#ffffff" offset="0" ></stop><stop id="SvgjsStop5391" stop-opacity="0" stop-color="#ffffff" offset="1" ></stop></linearGradient><linearGradient id="SvgjsLinearGradient5393" x1="129.636" y1="79.822" x2="127.91" y2="81.879" gradientUnits="userSpaceOnUse" class="svga-on-canvas-eyesiris-gradient-right-7"><stop id="SvgjsStop5394" stop-opacity="1" stop-color="#ffffff" offset="0" ></stop><stop id="SvgjsStop5395" stop-opacity="0" stop-color="#ffffff" offset="1" ></stop></linearGradient><radialGradient id="SvgjsRadialGradient5419" cx="100" cy="100" r="150" gradientUnits="userSpaceOnUse" class="svga-on-canvas-backs-gradient-single-1"><stop id="SvgjsStop5420" stop-opacity="0" stop-color="#547980" offset="0" ></stop><stop id="SvgjsStop5421" stop-opacity="1" stop-color="#3f6971" offset="0.2" ></stop><stop id="SvgjsStop5422" stop-opacity="0" stop-color="#3f6971" offset="1" ></stop></radialGradient><linearGradient id="SvgjsLinearGradient5720" x1="100" y1="171" x2="100" y2="131" gradientUnits="userSpaceOnUse" class="svga-on-canvas-chinshadow-gradient-single-0"><stop id="SvgjsStop5721" stop-opacity="0.8" stop-color="#c68968" offset="0" ></stop><stop id="SvgjsStop5722" stop-opacity="1" stop-color="#a75e36" offset="0.7" ></stop></linearGradient><radialGradient id="SvgjsRadialGradient5724" cx="100" cy="114" r="41" gradientUnits="userSpaceOnUse" class="svga-on-canvas-facehighlight-gradient-single-0"><stop id="SvgjsStop5725" stop-opacity="0.5" stop-color="#e4bba5" offset="0" ></stop><stop id="SvgjsStop5726" stop-opacity="0" stop-color="#d5a185" offset="0.9" ></stop></radialGradient><radialGradient id="SvgjsRadialGradient5728" cx="100" cy="54" r="37" gradientUnits="userSpaceOnUse" class="svga-on-canvas-facehighlight-gradient-single-1"><stop id="SvgjsStop5729" stop-opacity="0.5" stop-color="#e4bba5" offset="0" ></stop><stop id="SvgjsStop5730" stop-opacity="0" stop-color="#d5a185" offset="0.9" ></stop></radialGradient><radialGradient id="SvgjsRadialGradient5761" cx="126.682" cy="84.862" r="13.37" gradientTransform="matrix(-1.0172 0 0 1.0172 202.5653 -1.4692)" gradientUnits="userSpaceOnUse" class="svga-on-canvas-eyesback-gradient-left-0"><stop id="SvgjsStop5762" stop-opacity="1" stop-color="#ffffff" offset="0" ></stop><stop id="SvgjsStop5763" stop-opacity="1" stop-color="#fdfefe" offset="0.544" ></stop><stop id="SvgjsStop5764" stop-opacity="1" stop-color="#f6f8f9" offset="0.74" ></stop><stop id="SvgjsStop5765" stop-opacity="1" stop-color="#eaeff2" offset="0.879" ></stop><stop id="SvgjsStop5766" stop-opacity="1" stop-color="#d9e3e8" offset="0.992" ></stop><stop id="SvgjsStop5767" stop-opacity="1" stop-color="#d8e2e7" offset="1" ></stop></radialGradient><radialGradient id="SvgjsRadialGradient5769" cx="126.289" cy="84.862" r="13.371" gradientTransform="matrix(1.0172 0 0 1.0172 -2.5653 -1.4692)" gradientUnits="userSpaceOnUse" class="svga-on-canvas-eyesback-gradient-right-0"><stop id="SvgjsStop5770" stop-opacity="1" stop-color="#ffffff" offset="0" ></stop><stop id="SvgjsStop5771" stop-opacity="1" stop-color="#fdfefe" offset="0.544" ></stop><stop id="SvgjsStop5772" stop-opacity="1" stop-color="#f6f8f9" offset="0.74" ></stop><stop id="SvgjsStop5773" stop-opacity="1" stop-color="#eaeff2" offset="0.879" ></stop><stop id="SvgjsStop5774" stop-opacity="1" stop-color="#d9e3e8" offset="0.992" ></stop><stop id="SvgjsStop5775" stop-opacity="1" stop-color="#d8e2e7" offset="1" ></stop></radialGradient><radialGradient id="SvgjsRadialGradient5777" cx="126.682" cy="84.862" r="13.37" gradientTransform="matrix(-1.0172 0 0 1.0172 202.5653 -1.4692)" gradientUnits="userSpaceOnUse" class="svga-on-canvas-eyesfront-gradient-left-0"><stop id="SvgjsStop5778" stop-opacity="1" stop-color="#ffffff" offset="0" ></stop><stop id="SvgjsStop5779" stop-opacity="1" stop-color="#fdfefe" offset="0.544" ></stop><stop id="SvgjsStop5780" stop-opacity="1" stop-color="#f6f8f9" offset="0.74" ></stop><stop id="SvgjsStop5781" stop-opacity="1" stop-color="#eaeff2" offset="0.879" ></stop><stop id="SvgjsStop5782" stop-opacity="1" stop-color="#d9e3e8" offset="0.992" ></stop><stop id="SvgjsStop5783" stop-opacity="1" stop-color="#d8e2e7" offset="1" ></stop></radialGradient><radialGradient id="SvgjsRadialGradient5787" cx="122.115" cy="84.345" fx="133.972" fy="84.379" r="16.863" gradientTransform="matrix(0.9998 0.0208 0.0166 -0.7998 -45.6081 149.2658)" gradientUnits="userSpaceOnUse" class="svga-on-canvas-eyesfront-gradient-left-3"><stop id="SvgjsStop5788" stop-opacity="1" stop-color="#c68968" offset="0" ></stop><stop id="SvgjsStop5789" stop-opacity="0.3" stop-color="#c68968" offset="0.7" ></stop><stop id="SvgjsStop5790" stop-opacity="0" stop-color="#d5a185" offset="1" ></stop></radialGradient><radialGradient id="SvgjsRadialGradient5792" cx="72.882" cy="102.392" r="22.097" gradientTransform="matrix(1.0455 -0.0545 0.0548 1.0391 -8.9534 0.4299)" gradientUnits="userSpaceOnUse" class="svga-on-canvas-eyesfront-gradient-left-4"><stop id="SvgjsStop5793" stop-opacity="0" stop-color="#000000" offset="0.95" ></stop><stop id="SvgjsStop5794" stop-opacity="0.2" stop-color="#000000" offset="1" ></stop></radialGradient><radialGradient id="SvgjsRadialGradient5798" cx="126.289" cy="84.862" r="13.371" gradientTransform="matrix(1.0172 0 0 1.0172 -2.5653 -1.4692)" gradientUnits="userSpaceOnUse" class="svga-on-canvas-eyesfront-gradient-right-0"><stop id="SvgjsStop5799" stop-opacity="1" stop-color="#ffffff" offset="0" ></stop><stop id="SvgjsStop5800" stop-opacity="1" stop-color="#fdfefe" offset="0.544" ></stop><stop id="SvgjsStop5801" stop-opacity="1" stop-color="#f6f8f9" offset="0.74" ></stop><stop id="SvgjsStop5802" stop-opacity="1" stop-color="#eaeff2" offset="0.879" ></stop><stop id="SvgjsStop5803" stop-opacity="1" stop-color="#d9e3e8" offset="0.992" ></stop><stop id="SvgjsStop5804" stop-opacity="1" stop-color="#d8e2e7" offset="1" ></stop></radialGradient><radialGradient id="SvgjsRadialGradient5808" cx="121.716" cy="84.345" fx="133.573" fy="84.379" r="16.863" gradientTransform="matrix(-0.9998 0.0208 -0.0166 -0.7998 244.8094 149.2741)" gradientUnits="userSpaceOnUse" class="svga-on-canvas-eyesfront-gradient-right-3"><stop id="SvgjsStop5809" stop-opacity="1" stop-color="#c68968" offset="0" ></stop><stop id="SvgjsStop5810" stop-opacity="0.3" stop-color="#c68968" offset="0.7" ></stop><stop id="SvgjsStop5811" stop-opacity="0" stop-color="#d5a185" offset="1" ></stop></radialGradient><radialGradient id="SvgjsRadialGradient5813" cx="73.264" cy="102.408" r="22.097" gradientTransform="matrix(-1.0455 -0.0545 -0.0548 1.0391 208.9532 0.4342)" gradientUnits="userSpaceOnUse" class="svga-on-canvas-eyesfront-gradient-right-4"><stop id="SvgjsStop5814" stop-opacity="0" stop-color="#000000" offset="0.95" ></stop><stop id="SvgjsStop5815" stop-opacity="0.2" stop-color="#000000" offset="1" ></stop></radialGradient><linearGradient id="SvgjsLinearGradient5833" x1="100" y1="142" x2="100" y2="139" gradientUnits="userSpaceOnUse" class="svga-on-canvas-mouth-gradient-single-0"><stop id="SvgjsStop5834" stop-opacity="1" stop-color="#cd9576" offset="0.1" ></stop><stop id="SvgjsStop5835" stop-opacity="1" stop-color="#c68968" offset="1" ></stop></linearGradient></defs><g id="svga-group-wrapper"><g id="svga-group-backs-single"><path id="SvgjsPath5711" d="M225 225H-25V-25h250V225z" fill="#ecf0f1" stroke-width="none" opacity="1" stroke="none"></path></g><g id="svga-group-humanwrap-move" transform="matrix(1,0,0,1,0,0)"><g id="svga-group-humanwrap" transform="matrix(1,0,0,1,0,0)"><g id="svga-group-hair-back-move" transform="matrix(1,0,0,1,0,0)"><g id="svga-group-hair-back" transform="matrix(1,0,0,1,0,0)"><path id="SvgjsPath5910" d="M100.5,100.5h-1v-1h1V100.5z" fill="#2a232b" stroke-width="none" opacity="1" stroke="none"></path></g></g><g id="svga-group-humanbody-single"><path id="SvgjsPath5731" d="M195.417 199.778c-2.196-4.746-8.195-11.779-14.86-13.722 -8.239-2.403-26.837-5.308-33.733-6.923 -5.528-1.296-16.662-11.294-20.564-14.65 -0.7-0.6-1.273-1.839-1.287-2.76 -0.139-10.864 4.195-39.724 4.195-39.724H100 70.833c0 0 4.334 28.859 4.193 39.724 -0.011 0.921-0.587 2.16-1.285 2.76 -3.902 3.356-15.036 13.354-20.564 14.65 -6.897 1.615-25.495 4.619-33.733 7.022 -6.667 1.942-12.664 8.876-14.86 13.622 -3.708 8.008-4.584 22.5-4.584 35h100 100C200 222.278 199.123 207.786 195.417 199.778z" fill="#d5a185" stroke-width="none" opacity="1" stroke="none"></path><path id="SvgjsPath5732" d="M159.156 184.058c24.342 3.542 34.586 8.708 37.794 50.721H200c0-12.5-0.877-26.992-4.583-35 -2.196-4.746-8.195-11.779-14.86-13.722 -8.239-2.403-26.837-5.308-33.733-6.923 -5.528-1.296-18.242-12.069-21.643-16.35 3.36 4.704 12.791 15.605 21.054 18.46C150.188 182.61 153.48 183.232 159.156 184.058zM53.766 181.244c8.263-2.854 17.693-13.756 21.054-18.46 -3.4 4.28-16.114 15.054-21.643 16.35 -6.896 1.615-25.494 4.619-33.733 7.022 -6.665 1.942-12.664 8.876-14.86 13.622 -3.706 8.008-4.583 22.5-4.583 35h3.05c3.188-41.744 13.475-47.183 37.794-50.721C46.52 183.232 49.813 182.61 53.766 181.244z" fill="#e4bba5" stroke-width="none" opacity="1" stroke="none"></path><path id="SvgjsPath5733" d="M95.646 197.62c0 0-5.074-1.609-7.083-2.379 -10.449-4.009-44.395-6.607-44.395-6.607s35.754 1.419 43.644 2.779c-0.458-4.767-3.017-20.004-3.017-20.004s5.149 16.815 6.409 21.057C91.878 194.734 95.646 197.62 95.646 197.62zM106.445 196.278c-0.089 0.073-0.191 0.168-0.302 0.268C106.256 196.461 106.358 196.372 106.445 196.278zM95.646 197.62c0 0 2.893 2.992 4.347 3.03 1.91 0.051 4.828-2.899 6.151-4.104 -1.265 0.957-4.159 1.391-5.31 1.436C99.504 198.033 95.646 197.62 95.646 197.62zM116.664 190.101c-1.545 0.248-4.386 0.789-4.386 0.789l2.287-14.89c-0.646 3.071-4.474 16.211-8.12 20.278 1.91-1.616 6.158-2.391 8.324-2.704 10.236-1.484 10.232-1.483 41.062-4.94C155.831 188.634 126.76 188.479 116.664 190.101z" fill="#c68968" stroke-width="none" opacity="1" stroke="none"></path><path id="SvgjsPath5734" d="M195.417 199.778c-2.196-4.746-8.195-11.779-14.86-13.722 -8.239-2.403-26.837-5.308-33.733-6.923 -5.528-1.296-16.662-11.294-20.564-14.65 -0.7-0.6-1.273-1.839-1.287-2.76 -0.139-10.864 4.195-39.724 4.195-39.724H100 70.833c0 0 4.334 28.859 4.193 39.724 -0.011 0.921-0.587 2.16-1.285 2.76 -3.902 3.356-15.036 13.354-20.564 14.65 -6.897 1.615-25.495 4.619-33.733 7.022 -6.667 1.942-12.664 8.876-14.86 13.622 -3.708 8.008-4.584 22.5-4.584 35h100 100C200 222.278 199.123 207.786 195.417 199.778z" fill="none" stroke="#a75e36" stroke-width="1.5" opacity="1"></path></g><g id="svga-group-chinshadow-single"><path id="SvgjsPath5719" d="M100.021 171.866c8.183 0 16.871-4.943 24.199-10.675 -0.001-6.702 1.451-19.105 2.652-28.205 -15.382-2.247-38.406-2.279-53.766-0.152 1.184 8.96 2.625 21.206 2.671 28.02C83.119 166.767 91.822 171.866 100.021 171.866z" fill="url(#SvgjsLinearGradient5720)" opacity="1"></path></g><g id="svga-group-clothes-single"><path id="SvgjsPath5845" d="M111.806 235.888c-19.135 0-41.455-0.074-68.233-0.229l-23.679-0.128c-14.298-0.078-15.141-0.094-16.887-0.094l-4.899 0.007c-4.571-41.875 14.41-52.87 43.762-56.708 7.789-1.097 15.449-3.097 21.459-6.972 16.327 22.243 64.811 17.562 73.103-0.629 1.39 0.53 2.539 1.215 3.977 1.734 4.666 3.433 11.072 5.836 17.628 6.199 26.008 1.441 44.419 12.996 44.057 54.64 0.003 0.165 0.004 1.175-0.013 1.49 -12.513 0-17.206 0.121-27.034 0.262 -13.331 0.19-29.923 0.427-63.229 0.427C111.813 235.888 111.81 235.888 111.806 235.888z" fill="#386e77" stroke-width="none" opacity="1" stroke="none"></path><path id="SvgjsPath5846" d="M201.055 234.64c-0.41-7.385-4.064-28.058-10.36-37.541 -12.482-18.805-42.26-12.206-49.132-19.693 -4.986 10.159-24.975 16.595-31.594 17.54 19.181-6.36 27.237-10.959 30.42-21.87 6.405 8.33 41.074 1.971 54.717 24.331C199.101 203.954 202.9 224.793 201.055 234.64zM55.811 177.628c1.357-0.315 2.034-1.249 3.381-1.614l-1.426-1.891c-9.049 7.052-42.909 2.645-54.519 24.036 -3.659 6.741-6.127 22.788-4.192 36.439 0.537-8.384 0.799-26.314 7.095-35.798 11.324-17.06 31.974-12.553 47.619-19.775 6.983 8.6 17.888 12.828 28.984 14.577C68.832 189.971 60.85 183.84 55.811 177.628z" fill="#4d7e86" stroke-width="none" opacity="1" stroke="none"></path><path id="SvgjsPath5847" d="M135.31 173.244c-5.532 11.514-47.35 24.923-70.93 0.879 -1.466 0.622-5.852 2.112-5.852 2.112 17.176 23.386 67.511 23.534 80.909-0.114C139.378 176.098 136.672 173.936 135.31 173.244z" fill="#265e68" stroke-width="none" opacity="1" stroke="none"></path><path id="SvgjsPath5848" d="M136.38 171.002c-9.413 18.822-58.397 21.485-73.012 0.632 -5.337 1.578-10.469 4.941-15.636 5.782C16.812 182.021-6.046 184.335-2 235.552c9.94 0-6.611-0.065 45.571 0.215 123.59 0.71 119.562-0.461 158.606-0.461 0.029-0.14 0.015-1.452 0.021-1.596 2.096-56.436-30.852-53.104-53.12-56.995 -3.144-0.718-6.066-2.773-8.635-3.945C139.024 172.121 137.818 171.538 136.38 171.002zM63.014 172.265c12.974 23.392 64.219 18.699 74.113 0.101 1.2 0.504 1.507 0.704 2.898 1.197 -10.248 21.489-60.942 28.337-81.677 1.163C58.494 174.685 61.552 172.813 63.014 172.265zM-0.845 234.778c-2.421-26.431 1.797-48.043 32.78-53.345 10.276-1.896 16.557-1.962 25.384-5.794 16.763 27.405 72.098 23.158 83.598-1.305 1.652 1.409 4.228 3.03 7.405 3.785 18.098 4.299 54.838-0.894 52.898 56.658C147.163 234.075 102.355 232.433-0.845 234.778z" fill="#0c4049" stroke-width="none" opacity="1" stroke="none"></path></g><g id="svga-group-head" transform="matrix(1,0,0,1,0,0)"><g id="svga-group-ears-left-move" transform="matrix(1,0,0,1,0,0)"><g id="svga-group-ears-left" transform="matrix(1,0,0,1,0,0)"><path id="SvgjsPath5840" d="M45.671 84.344c-1.485-2.462-6.327-9.199-10.031-8.254 -3.012 0.772-2.973 4.971-3.206 7.455 -0.34 3.644-0.464 9.992 0.525 12.568 0.951 2.473 3.96 7.252 5.828 9.075 2.299 2.235 5.97 9.358 6.422 10.097 0.711 1.168 2.137 2.84 4.325 2.708 3.071-0.185 5.724-3.087 5.965-4.485C56.8 105.918 49.536 90.75 45.671 84.344z" fill="#d5a185" stroke="#a75e36" stroke-width="1.5" opacity="1"></path><path id="SvgjsPath5841" d="M44.2 99.341c-0.143-0.563 0.007-1.513 0.154-2.429 0.133-0.835 0.258-1.624 0.182-2.182 -0.289-2.09-1.915-6.06-2.976-8.212 -1.223-2.476-3.199-5.595-5.679-6.399 -1.024-0.333-1.699 0.065-2.089 0.468 -0.288 0.296-0.353 0.645-0.259 0.687 0.095 0.041 0.307-0.248 0.617-0.519 0.254-0.222-0.508-0.04 0 0 -0.205 1.04-0.865 6.302-0.41 10.143 0.358 3.022 1.05 5.279 1.263 5.617 0.031 0.356 0.083 0.705 0.16 1.043 1.002 4.41 7.518 10.177 9.034 11.82 0.28 0.303 0.574 0.483 0.646 0.409s-0.101-0.373-0.379-0.678c-1.498-1.632-7.971-7.381-8.939-11.635 -1.027-4.514 3.912-11.207 4.699-12.623 0.401 0.665 0.742 1.303 1.004 1.835 0.207 0.417 0.434 0.906 0.67 1.435 -0.463 0.738-5.118 6.127-3.934 10.441 0.438 1.591 3.822 3.642 5.131 4.203 0.72 0.31 0.99 0.772 1.304 1.306 0.364 0.624 0.033 2.229 1.23 2.739 0.244 0.104 0.464 0.146 0.659 0.146 0.338 0 0.594-0.13 0.783-0.284 0.02 0.271 0.019 0.619 0.009 0.941 -0.012 0.418 0.047 0.609 0.148 0.617 0.103 0.009 0.21-0.174 0.223-0.587 0.017-0.51 0.014-1.141-0.077-1.444 -0.269-0.889-1.088-1.894-1.957-2.957C44.563 102.197 44.422 100.213 44.2 99.341zM34.969 95.432c-2.348-6.923 1.283-13.229 1.81-14.179 1.012 0.399 2.562 2.193 3.221 3.235C39.52 85.321 35.067 90.775 34.969 95.432zM45.772 106.464c-1.084-0.462-0.706-1.984-1.056-2.584 -0.318-0.542-0.646-1.102-1.479-1.46 -0.18-0.078-0.379-0.196-0.583-0.332 -2.682-6.075 0.293-8.73 1.039-9.273 0.229 0.742 0.399 1.423 0.476 1.97 0.068 0.5-0.059 1.298-0.181 2.068 -0.153 0.955-0.31 1.944-0.147 2.584 0.244 0.953 0.411 2.97 1.291 4.048 0.781 0.956 1.583 1.942 1.857 2.746C46.871 106.391 46.5 106.775 45.772 106.464z" fill="#a75e36" stroke-width="none" opacity="1" stroke="none"></path></g></g><g id="svga-group-ears-right-move" transform="matrix(1,0,0,1,0,0)"><g id="svga-group-ears-right" transform="matrix(1,0,0,1,0,0)"><path id="SvgjsPath5842" d="M154.066 84.344c1.486-2.462 6.328-9.199 10.031-8.254 3.012 0.772 2.973 4.971 3.207 7.455 0.34 3.644 0.463 9.992-0.525 12.568 -0.951 2.473-3.961 7.252-5.828 9.075 -2.299 2.235-5.971 9.358-6.422 10.097 -0.711 1.168-2.137 2.84-4.326 2.708 -3.07-0.185-5.723-3.087-5.965-4.485C142.938 105.918 150.203 90.75 154.066 84.344z" fill="#d5a185" stroke="#a75e36" stroke-width="1.5" opacity="1"></path><path id="SvgjsPath5843" d="M154.322 103.243c-0.869 1.063-1.688 2.068-1.957 2.957 -0.092 0.304-0.094 0.935-0.078 1.444 0.014 0.413 0.121 0.596 0.225 0.587 0.102-0.008 0.16-0.199 0.148-0.617 -0.01-0.322-0.012-0.67 0.008-0.941 0.189 0.154 0.445 0.284 0.783 0.284 0.195 0 0.416-0.042 0.66-0.146 1.195-0.511 0.865-2.116 1.229-2.739 0.314-0.534 0.584-0.997 1.305-1.306 1.309-0.561 4.693-2.611 5.131-4.203 1.184-4.314-3.471-9.704-3.934-10.441 0.234-0.529 0.463-1.018 0.668-1.435 0.264-0.532 0.604-1.171 1.006-1.835 0.787 1.416 5.725 8.108 4.699 12.623 -0.969 4.254-7.441 10.003-8.939 11.635 -0.279 0.305-0.453 0.604-0.381 0.678 0.074 0.074 0.367-0.106 0.646-0.409 1.516-1.643 8.031-7.41 9.033-11.82 0.078-0.338 0.131-0.687 0.162-1.043 0.211-0.337 0.904-2.594 1.262-5.617 0.455-3.841-0.205-9.103-0.41-10.143 0.508-0.04-0.254-0.222 0 0 0.311 0.271 0.523 0.56 0.617 0.519 0.094-0.042 0.029-0.39-0.258-0.687 -0.391-0.403-1.066-0.801-2.09-0.468 -2.48 0.804-4.457 3.923-5.68 6.399 -1.061 2.152-2.686 6.122-2.975 8.212 -0.076 0.558 0.049 1.347 0.182 2.182 0.146 0.916 0.297 1.866 0.154 2.429C155.316 100.213 155.176 102.197 154.322 103.243zM159.738 84.488c0.66-1.042 2.209-2.835 3.221-3.235 0.527 0.95 4.158 7.256 1.811 14.179C164.672 90.775 160.219 85.321 159.738 84.488zM152.75 106.229c0.273-0.804 1.076-1.79 1.857-2.746 0.879-1.078 1.047-3.095 1.291-4.048 0.162-0.64 0.006-1.629-0.146-2.584 -0.123-0.77-0.25-1.568-0.182-2.068 0.076-0.547 0.246-1.228 0.475-1.97 0.746 0.543 3.721 3.199 1.039 9.273 -0.203 0.136-0.402 0.254-0.584 0.332 -0.832 0.358-1.16 0.918-1.479 1.46 -0.35 0.6 0.029 2.123-1.055 2.584C153.238 106.775 152.867 106.391 152.75 106.229z" fill="#a75e36" stroke-width="none" opacity="1" stroke="none"></path></g></g><g id="svga-group-faceshape-wrap" transform="matrix(1,0,0,1,0,0)"><g id="svga-group-faceshape-single"><path id="SvgjsPath5712" d="M158.785 78.006l-0.005 0c-0.01 0.046-12.197 40.27-15.879 52.418 -0.715 2.358-1.931 4.551-3.556 6.386 -6.375 7.194-23.768 25.057-39.324 25.057 -15.849 0-33.591-19.045-39.708-26.214 -1.442-1.688-2.507-3.633-3.172-5.765 -3.607-11.551-16.126-51.648-16.137-51.694h-0.001c-1.298-4.992-1.994-10.231-2.002-15.634C38.949 28.536 66.155 0.92 99.773 0.867c33.621-0.053 60.913 27.476 60.964 61.499C160.746 67.769 160.068 73.01 158.785 78.006z" fill="#d5a185" stroke-width="none" opacity="1" stroke="none"></path><path id="SvgjsPath5713" d="M132.168 10.26c14.31 11.135 23.671 29.457 23.699 50.208 0.009 5.404-0.615 10.645-1.796 15.641l-0.004 0c-0.009 0.046-11.223 40.27-14.608 52.417 -0.658 2.358-1.776 4.551-3.271 6.385 -5.865 7.195-21.866 25.059-36.178 25.059 -14.582 0-30.904-19.047-36.531-26.215 -1.327-1.689-2.306-3.633-2.918-5.764 -3.318-11.552-14.836-51.649-14.846-51.695h-0.001c-1.194-4.992-1.834-10.231-1.842-15.634 -0.029-20.827 9.348-39.239 23.713-50.412C50.392 21.159 38.967 40.508 39.001 62.56c0.008 5.403 0.704 10.643 2.002 15.634h0.001c0.01 0.046 12.53 40.143 16.137 51.694 0.666 2.132 1.73 4.076 3.172 5.765 6.116 7.169 23.858 26.214 39.708 26.214 15.557 0 32.949-17.862 39.324-25.057 1.625-1.835 2.841-4.027 3.556-6.386 3.682-12.148 15.869-52.372 15.879-52.418l0.005 0c1.283-4.997 1.961-10.237 1.952-15.641C160.704 40.389 149.297 21.135 132.168 10.26z" fill="#cd9576" stroke-width="none" opacity="1" stroke="none"></path><path id="SvgjsPath5714" d="M158.785 78.006l-0.005 0c-0.01 0.046-12.197 40.27-15.879 52.418 -0.715 2.358-1.931 4.551-3.556 6.386 -6.375 7.194-23.768 25.057-39.324 25.057 -15.849 0-33.591-19.045-39.708-26.214 -1.442-1.688-2.507-3.633-3.172-5.765 -3.607-11.551-16.126-51.648-16.137-51.694h-0.001c-1.298-4.992-1.994-10.231-2.002-15.634C38.949 28.536 66.155 0.92 99.773 0.867c33.621-0.053 60.913 27.476 60.964 61.499C160.746 67.769 160.068 73.01 158.785 78.006z" fill="none" stroke="#a75e36" stroke-width="1.5" opacity="1"></path></g></g><g id="svga-group-mouth-single-move" transform="matrix(1,0,0,1,0,0)"><g id="svga-group-mouth-single" transform="matrix(1,0,0,1,0,0)"><path id="SvgjsPath5832" d="M96.227 139.237l8.297-0.207C103.563 143.5 96.884 142.858 96.227 139.237z" fill="url(#SvgjsLinearGradient5833)" opacity="1"></path><path id="SvgjsPath5836" d="M96.343 139.52c-0.371-0.05-0.315-0.579 0.08-0.542 0.043 0.006 4.308 0.546 7.878-0.215 0.386-0.075 0.5 0.455 0.13 0.534C101.634 139.895 98.015 139.755 96.343 139.52zM100.083 135.95c-1.503 0-2.96-0.521-4.424-0.776 -1.64-0.287-3.274-0.041-4.915 0.104 -1.676 0.149-5.333-0.013-6.365-0.666 -0.578-0.367-0.47-1.221 0.181-1.449 0.614-0.22 1.571 0.236 2.191 0.347 2.872 0.515 4.384-0.034 6.902-0.118 3.851-0.116 4.26 1.501 9.064 0.53 5.165-1.044 7.491-0.254 11.197-1.37 0.508-0.154 1.112-0.56 1.645-0.286 0.615 0.318 0.585 1.185-0.049 1.464 -3.406 1.502-7.174 0.895-10.955 1.526C103.073 135.502 101.596 135.95 100.083 135.95z" fill="#a75e36" stroke-width="none" opacity="1" stroke="none"></path></g></g><g id="svga-group-eyes-left-move" transform="matrix(1,0,0,1,0,0)"><g id="svga-group-eyes-left" transform="matrix(1,0,0,1,0,0)"><g id="svga-group-eyesback-left"><path id="SvgjsPath5760" d="M86.729 84.747c0.161 0.571 0.257 1.157 0.257 1.758 0 1.481-0.523 2.881-1.44 4.135 -4.077 0.038-16.966 0.706-18.935-0.303 -2.813-1.441-5.323-7.369-5.506-8.827C71.1 75.761 78.475 76.879 86.729 84.747z" fill="url(#SvgjsRadialGradient5761)" opacity="1"></path></g><g id="svga-group-eyesiriswrapper-left" transform="matrix(1,0,0,1,0.75,0.5)"><g id="svga-group-eyesiriscontrol-left" transform="matrix(1,0,0,1,0,0)"><g id="svga-group-eyesiris-left" transform="matrix(1,0,0,1,0,0)"><path id="SvgjsPath5818" d="M79.788 85.588c-0.869 3.192-4.162 5.073-7.361 4.196 -3.197-0.876-5.084-4.178-4.214-7.371 0.869-3.195 4.168-5.076 7.365-4.198C78.772 79.09 80.659 82.392 79.788 85.588z" fill="#681711" stroke="#3a0400" stroke-width="0.5" opacity="1"></path><path id="SvgjsPath5819" d="M78.855 85.662c-0.849 2.452-3.407 3.881-5.899 3.199 -2.3-0.631-3.752-2.838-3.563-5.171 0.853-0.067 1.787-0.087 2.756-0.04 -0.01 0.033-0.027 0.062-0.036 0.096 -0.306 1.125 0.407 2.305 1.592 2.63 1.189 0.326 2.401-0.326 2.707-1.451 0.039-0.147 0.06-0.294 0.065-0.439C77.29 84.782 78.088 85.165 78.855 85.662z" fill="#77251f" stroke-width="none" opacity="1"></path><path id="SvgjsPath5820" d="M74.813 82.21c-1.203-0.344-2.429 0.342-2.739 1.54 -0.311 1.191 0.412 2.438 1.614 2.783 1.204 0.345 2.43-0.342 2.741-1.534C76.742 83.801 76.016 82.555 74.813 82.21zM75.075 86.442c-0.5 0.156-1.017-0.051-1.154-0.462 -0.133-0.411 0.163-0.867 0.667-1.019 0.503-0.156 1.019 0.051 1.157 0.459C75.881 85.831 75.582 86.287 75.075 86.442z" fill="#000000" stroke-width="none" opacity="0.9"></path><path id="SvgjsPath5821" d="M70.811 87.159c-0.37 0.222-0.922 0.023-1.238-0.447 -0.316-0.466-0.269-1.024 0.102-1.247 0.368-0.219 0.925-0.021 1.239 0.446C71.226 86.378 71.181 86.938 70.811 87.159z" fill="#ffffff" stroke-width="none" opacity="0.6"></path><path id="SvgjsPath5822" d="M78.71 83.74c-0.846 0.507-2.117 0.051-2.837-1.02 -0.72-1.072-0.612-2.352 0.234-2.857 0.844-0.509 2.118-0.053 2.834 1.019C79.66 81.954 79.556 83.232 78.71 83.74z" fill="#ffffff" stroke-width="none" opacity="0.8"></path></g></g></g><g id="svga-group-eyesfront-left"><path id="SvgjsPath5785" d="M55.8 79.995c0 13.808 8.06 31.404 18 31.404s18-11.191 18-24.999c0-13.809-8.06-25.001-18-25.001S55.8 66.187 55.8 79.995zM61.104 81.51c9.995-5.749 17.37-4.63 25.624 3.237 0.161 0.571 0.257 1.157 0.257 1.758 0 1.481-0.523 2.881-1.44 4.135 -4.077 0.038-16.966 0.706-18.935-0.303C63.798 88.896 61.287 82.968 61.104 81.51z" fill="#d5a185" stroke-width="none" opacity="1" stroke="none"></path><path id="SvgjsPath5786" d="M61.209 81.995c0.522 1.979 2.833 7.026 5.401 8.342 1.969 1.009 14.857 0.341 18.935 0.303 0.917-1.253 1.44-2.653 1.44-4.135 0-0.601-0.096-1.187-0.257-1.758 -8.166-7.784-15.476-8.95-25.31-3.407 1.968-5.724 8.522-9.952 16.34-9.987 9.393-0.04 17.018 5.981 17.041 13.451 0.023 7.469-7.572 13.554-16.961 13.596 -9.393 0.04-17.016-5.981-17.039-13.45C60.797 83.934 60.945 82.948 61.209 81.995z" fill="url(#SvgjsRadialGradient5787)" opacity="1"></path><path id="SvgjsPath5791" d="M66.61 90.337c-2.813-1.441-5.323-7.369-5.506-8.827 9.995-5.749 17.37-4.63 25.624 3.237 0.161 0.571 0.257 1.157 0.257 1.758 0 1.481-0.523 2.881-1.44 4.135C81.468 90.678 68.579 91.346 66.61 90.337z" fill="url(#SvgjsRadialGradient5792)" opacity="1"></path><path id="SvgjsPath5795" d="M61.138 78.389c3.414-1.34 17.798-6.314 25.648 4.274C77.8 72.562 65.582 77.218 61.138 78.389z" fill="#a75e36" stroke-width="none" opacity="1" stroke="none"></path><path id="SvgjsPath5796" d="M58.8 80.972c1.217 2.342 6.361 10.159 7.561 10.218 10.059 0.608 16.311-0.248 20.313-0.813 -1.499-0.19-17.826 0.781-20.063-0.313 -2.813-1.375-5.323-7.031-5.506-8.423 10.251-5.626 17.743-4.379 26.256 3.659C79.06 72.701 61.853 78.441 58.8 80.972z" fill="#000000" stroke-width="none" opacity="1" stroke="none"></path></g></g></g><g id="svga-group-eyes-right-move" transform="matrix(1,0,0,1,0,0)"><g id="svga-group-eyes-right" transform="matrix(1,0,0,1,0,0)"><g id="svga-group-eyesback-right"><path id="SvgjsPath5768" d="M112.872 84.747c-0.161 0.571-0.257 1.157-0.257 1.758 0 1.481 0.523 2.881 1.44 4.135 4.077 0.038 16.966 0.706 18.935-0.303 2.813-1.441 5.323-7.369 5.506-8.827C128.501 75.761 121.126 76.879 112.872 84.747z" fill="url(#SvgjsRadialGradient5769)" opacity="1"></path></g><g id="svga-group-eyesiriswrapper-right" transform="matrix(1,0,0,1,-0.75,0.5)"><g id="svga-group-eyesiriscontrol-right" transform="matrix(1,0,0,1,0,0)"><g id="svga-group-eyesiris-right" transform="matrix(1,0,0,1,0,0)"><path id="SvgjsPath5823" d="M131.788 85.588c-0.869 3.192-4.162 5.073-7.362 4.196 -3.196-0.876-5.084-4.178-4.214-7.371 0.869-3.195 4.169-5.076 7.365-4.198C130.772 79.09 132.658 82.392 131.788 85.588z" fill="#681711" stroke="#3a0400" stroke-width="0.5" opacity="1"></path><path id="SvgjsPath5824" d="M130.855 85.662c-0.849 2.452-3.408 3.881-5.899 3.199 -2.3-0.631-3.753-2.838-3.563-5.171 0.854-0.067 1.787-0.087 2.756-0.04 -0.01 0.033-0.027 0.062-0.036 0.096 -0.306 1.125 0.407 2.305 1.593 2.63 1.189 0.326 2.401-0.326 2.707-1.451 0.038-0.147 0.06-0.294 0.065-0.439C129.29 84.782 130.089 85.165 130.855 85.662z" fill="#77251f" stroke-width="none" opacity="1"></path><path id="SvgjsPath5825" d="M126.813 82.21c-1.202-0.344-2.429 0.342-2.738 1.54 -0.312 1.191 0.412 2.438 1.613 2.783 1.204 0.345 2.431-0.342 2.742-1.534C128.741 83.801 128.016 82.555 126.813 82.21zM127.075 86.442c-0.5 0.156-1.018-0.051-1.154-0.462 -0.133-0.411 0.163-0.867 0.667-1.019 0.503-0.156 1.019 0.051 1.157 0.459C127.881 85.831 127.582 86.287 127.075 86.442z" fill="#000000" stroke-width="none" opacity="0.9"></path><path id="SvgjsPath5826" d="M122.812 87.159c-0.37 0.222-0.923 0.023-1.238-0.447 -0.316-0.466-0.27-1.024 0.102-1.247 0.367-0.219 0.926-0.021 1.239 0.446C123.227 86.378 123.181 86.938 122.812 87.159z" fill="#ffffff" stroke-width="none" opacity="0.6"></path><path id="SvgjsPath5827" d="M130.71 83.74c-0.846 0.507-2.116 0.051-2.837-1.02 -0.72-1.072-0.612-2.352 0.234-2.857 0.845-0.509 2.117-0.053 2.834 1.019C131.66 81.954 131.557 83.232 130.71 83.74z" fill="#ffffff" stroke-width="none" opacity="0.8"></path></g></g></g><g id="svga-group-eyesfront-right"><path id="SvgjsPath5806" d="M125.801 61.399c-9.94 0-18 11.193-18 25.001 0 13.808 8.06 24.999 18 24.999s18-16.226 18-30.033C143.801 67.558 135.741 61.399 125.801 61.399zM132.99 90.337c-1.969 1.009-14.857 0.341-18.935 0.303 -0.917-1.253-1.44-2.653-1.44-4.135 0-0.601 0.096-1.187 0.257-1.758 8.254-7.868 15.629-8.986 25.624-3.237C138.313 82.968 135.803 88.896 132.99 90.337z" fill="#d5a185" stroke-width="none" opacity="1" stroke="none"></path><path id="SvgjsPath5807" d="M138.392 81.995c-0.522 1.979-2.833 7.026-5.401 8.342 -1.969 1.009-14.857 0.341-18.935 0.303 -0.917-1.253-1.44-2.653-1.44-4.135 0-0.601 0.096-1.187 0.257-1.758 8.166-7.784 15.476-8.95 25.31-3.407 -1.968-5.724-8.522-9.952-16.34-9.987 -9.393-0.04-17.018 5.981-17.041 13.451 -0.023 7.469 7.572 13.554 16.961 13.596 9.393 0.04 17.016-5.981 17.039-13.45C138.804 83.934 138.655 82.948 138.392 81.995z" fill="url(#SvgjsRadialGradient5808)" opacity="1"></path><path id="SvgjsPath5812" d="M132.99 90.337c2.813-1.441 5.323-7.369 5.506-8.827 -9.995-5.749-17.37-4.63-25.624 3.237 -0.161 0.571-0.257 1.157-0.257 1.758 0 1.481 0.523 2.881 1.44 4.135C118.133 90.678 131.021 91.346 132.99 90.337z" fill="url(#SvgjsRadialGradient5813)" opacity="1"></path><path id="SvgjsPath5816" d="M112.814 82.664c7.85-10.588 22.234-5.615 25.648-4.274C134.019 77.218 121.801 72.562 112.814 82.664z" fill="#a75e36" stroke-width="none" opacity="1" stroke="none"></path><path id="SvgjsPath5817" d="M140.801 80.972c-1.217 2.342-6.361 10.159-7.561 10.218 -10.059 0.608-16.311-0.248-20.313-0.813 1.499-0.19 17.826 0.781 20.063-0.313 2.813-1.375 5.323-7.031 5.506-8.423 -10.251-5.626-17.743-4.379-26.256 3.659C120.541 72.701 137.748 78.441 140.801 80.972z" fill="#000000" stroke-width="none" opacity="1" stroke="none"></path></g></g></g><g id="svga-group-facehighlight-single"><path id="SvgjsPath5723" d="M141 113.974c0.035 22.622-18.292 40.994-40.938 41.025 -22.642 0.037-41.028-18.273-41.063-40.9 -0.035-22.62 18.292-41.064 40.937-41.1C122.579 72.964 140.967 91.349 141 113.974z" fill="url(#SvgjsRadialGradient5724)" opacity="1"></path><path id="SvgjsPath5727" d="M137.5 53.999c0 20.711-16.789 37.5-37.499 37.5 -20.711 0-37.501-16.789-37.501-37.5s16.79-37.5 37.501-37.5C120.711 16.499 137.5 33.288 137.5 53.999z" fill="url(#SvgjsRadialGradient5728)" opacity="1"></path></g><g id="svga-group-eyebrows-left-move" transform="matrix(1,0,0,1,0,0)"><g id="svga-group-eyebrows-left-rotate" transform="matrix(1,0,0,1,0,0)"><g id="svga-group-eyebrows-left" transform="matrix(1,0,0,1,0,0)"><path id="SvgjsPath5828" d="M52.488 73.87c7.475-9.383 20.338-7.822 30.878-6.314 2.681 0.384 5.441 0.672 8.07 1.336 1.884 0.475 3.365 2.622 1.851 4.356 -0.708 0.825-2.253 0.672-3.207 0.652C77.459 73.645 63.193 66.387 52.488 73.87z" fill="#2a232b" stroke-width="none" opacity="1" stroke="none"></path></g></g></g><g id="svga-group-eyebrows-right-move" transform="matrix(1,0,0,1,0,0)"><g id="svga-group-eyebrows-right-rotate" transform="matrix(1,0,0,1,0,0)"><g id="svga-group-eyebrows-right" transform="matrix(1,0,0,1,0,0)"><path id="SvgjsPath5829" d="M147.577 73.49c-2.164-1.448-4.454-2.47-7.043-2.889 -9.497-1.54-27.586 4.79-32.341 3.45 -2.912-0.822-2.323-3.739-1.035-4.458 0.775-0.433 0.99-0.422 7.909-1.612C126.824 65.961 139.988 64.355 147.577 73.49z" fill="#2a232b" stroke-width="none" opacity="1" stroke="none"></path></g></g></g><g id="svga-group-nose-single-move" transform="matrix(1,0,0,1,0,0)"><g id="svga-group-nose-single" transform="matrix(1,0,0,1,0,0)"><path id="SvgjsPath5837" d="M91.115 115.499c-0.878 2.064 5.934 4.292 8.519 4.429 2.8 0.147 10.646-2.9 9.316-4.992 -1.399-2.195-6.643-0.286-8.906-0.286C97.792 114.649 92.291 112.745 91.115 115.499z" fill="#c68968" stroke-width="none" opacity="1" stroke="none"></path><path id="SvgjsPath5838" d="M101.857 117.058c-0.23-0.759 1.876-1.584 2.657-1.694 1.101-0.16 3.36 0.802 3.158 1.592 -0.184 0.698-2.148-0.533-2.86-0.429C104.078 116.634 102.075 117.769 101.857 117.058zM94.974 116.811c0.968 0 2.404 0.623 2.668 0.074 0.315-0.655-2.139-1.461-2.86-1.372 -0.596 0.07-2.733 1.315-2.439 1.839C92.617 117.833 93.698 116.811 94.974 116.811z" fill="#a75e36" stroke-width="none" opacity="1" stroke="none"></path><path id="SvgjsPath5839" d="M100.089 111.999c0.607 0 1.742-0.74 1.792-2.23 0.201-6.008-0.956-23.833-1.792-23.77 -0.78 0.059-2.267 17.637-1.948 23.77C98.22 111.271 99.404 111.999 100.089 111.999z" fill="#f4d8c9" stroke-width="none" opacity="0.2" stroke="none"></path></g></g><g id="svga-group-beardwrap" transform="matrix(1,0,0,1,0,0)"><g id="svga-group-beard-single-move" transform="matrix(1,0,0,1,0,0)"><g id="svga-group-beard-single" transform="matrix(1,0,0,1,0,0)"><path id="SvgjsPath5971" d="M72.42 160.26c-5.81-3.72-13.18-11.11-15.9-14.77 -7.66-9.79-4.66-17.95-8.53-35.15 -1.98-7.5-5.26-18.5-5.66-21.25 0.92 0.14 5.78 0.8 6.6 0.93 1.2 9.39 11.79 16.08 13.6 35.39 1.59 12.14 7.59 18.02 17.41 24.08 4.16 2.58 12.18 6.78 14.08 2.24 1.54-3.67-1.1-11.12 5.3-12.33 1.33-0.24 4.18 0.28 5.27 2.75 1.75 3.96-0.91 11.56 4.76 11.56 5.88 0 16.02-7.55 18.85-10.16 11.11-9.12 7.48-20.17 12.58-32.27 5.89-13.04 7.72-11.36 10.27-21.27 0.69-0.07 5.9-0.83 6.6-0.92 -4.17 16.98-7.48 25.21-7.92 35.96 -0.79 15.97-5.59 21-16.37 30.85 -6.03 5.19-13.51 10.32-32.37 11.08C95.57 167.34 80.1 165.31 72.42 160.26z" fill="#2a232b" stroke-width="none" opacity="1"></path><path id="SvgjsPath5972" d="M95.38 142.31c0.62-1.45 1.76-2.59 3.93-3 1.36-0.24 4.28 0.3 5.38 2.81 0.04 0.08 0.06 0.17 0.09 0.25C103.09 143.86 100.5 152.4 95.38 142.31zM141 142c-8.07 14.34-22.56 22.25-38.44 22.3 -1.25 0.07-3.54 0.1-5.11 0C81.56 164.25 67.07 156.34 59 142c-9.23-13.84-7.39-31.09-14.91-45.45 1.19 4.32 2.7 9.59 3.81 13.82 3.87 17.19 0.87 25.38 8.55 35.19 2.81 3.78 10.16 11.1 15.92 14.79 7.31 4.8 21.46 6.87 27.63 6.78 6.17 0.09 20.33-1.97 27.63-6.78 5.76-3.69 13.11-11.01 15.92-14.79 7.68-9.81 4.68-18 8.55-35.19 1.11-4.23 2.62-9.5 3.81-13.82C148.39 110.91 150.23 128.16 141 142z" fill="#1b141c" stroke-width="none" opacity="1"></path><path id="SvgjsPath5973" d="M150.98 89.93c-2.55 9.97-4.37 8.25-10.28 21.33 -5.13 12.16-1.46 23.13-12.56 32.24 -2.78 2.56-14.58 11.41-20.12 9.97 -3.83-1.42-1.7-7.65-3.33-11.34 -1.1-2.51-4.02-3.05-5.38-2.81 -6.46 1.22-3.85 8.77-5.37 12.39 -1.87 4.45-9.86 0.24-13.94-2.29 -10.08-6.22-15.82-12.25-17.36-24.01 -1.82-19.41-12.46-26.06-13.61-35.47 -0.1-0.02-6.7-0.92-6.81-0.96 0.31 2.51 3.65 13.7 5.68 21.39 3.87 17.19 0.87 25.38 8.55 35.19 2.81 3.78 10.16 11.1 15.92 14.79 7.74 5.09 23.16 7.11 28.64 6.74 18.77-0.76 26.34-5.87 32.43-11.11 10.96-10.02 15.62-15.01 16.4-30.92 0.44-10.78 3.73-18.87 7.95-36.08C157.74 88.98 151.22 89.93 150.98 89.93zM148.16 124.87c-1.33 16.05-4.59 19.53-15.46 29.44 -7.73 6.67-15.89 10.48-32.74 11.68 -7.52-0.57-20.89-3.02-27.2-7.45 -6.56-4.44-13.32-11.94-15.07-14.32 -7.22-9.27-3.76-17.8-8.36-34.18 -3.01-9.46-4.51-12.5-6.94-20.78 1 0.14 3.37 0.62 6.56 0.93 1.35 10.67 10.52 15.97 12.17 35.34 0.35 2.32 0.77 6.86 4.03 12.27 1.66 2.8 3.82 5.3 5.7 6.85 5.59 5.16 24.18 17.39 24.44 4.11 0.04-3.62-0.46-8.59 4.72-9.35 8.73 1.24 1.26 13.05 7.76 15.11 6.22 1.75 27.12-8.89 30.41-24.98 1.7-6.03-0.87-10.33 8.5-28.01 2.48-4.5 3.69-6.57 4.38-11.34 1.23-0.12 5.73-0.7 6.56-0.94C153.92 101.69 148.85 113.11 148.16 124.87z" fill="#000000" stroke-width="none" opacity="1"></path></g></g></g><g id="svga-group-mustache-single-move" transform="matrix(1,0,0,1,0,0)"><g id="svga-group-mustache-single" transform="matrix(1,0,0,1,0,0)"><path id="SvgjsPath5932" d="M80.56 143.19c-7.87-11.92 1.64-21.9 10.5-21.9 3.27 0 5.65 1.63 8.98 1.65 3.11 0 6.01-1.58 9.11-1.49 6.34 0 14.64 5.28 13.09 13.41 -0.5 2.55-1.58 4.88-2.76 7.65 -2.9-13.79-9.32-10.74-21.95-11.35 -5.81-0.28-11.06-0.54-14.67 4.44C81.42 137.83 80.65 141.46 80.56 143.19" fill="#2a232b" stroke-width="none" opacity="1"></path><path id="SvgjsPath5933" d="M114.64 122.65c6.79 5.52 7.15 10.66 5.4 15.4 -0.54-6.99-7.47-13.3-20.26-10.03C86.98 124 80.33 131.2 79.7 138.9c-0.94-5.92 0.12-12.47 7.58-17.01 -7.52 2.33-13.72 11.17-6.62 21.62 0-1.41 0.73-5.43 2.29-7.85 3.98-5.49 9.98-4.55 16.6-4.3 9.78 0.62 16.95-2.77 19.86 11.28 0.01 0.08 0.03 0.15 0.05 0.22 0.08-0.18 0.16-0.38 0.25-0.59 0.04-0.1 0.09-0.2 0.13-0.31 0.97-2.27 2.02-4.56 2.51-7.06C123.48 128.87 119.34 124.62 114.64 122.65z" fill="#1b141c" stroke-width="none" opacity="1"></path><path id="SvgjsPath5934" d="M109.15 121.36c-3.11-0.11-6.08 1.52-9.23 1.48 -2.44-0.05-4.81-1.07-6.76-1.45 -9.31-1.81-21.46 8.97-12.51 22.12 0-1.41 0.73-5.43 2.29-7.85 3.98-5.49 9.98-4.55 16.6-4.3 9.78 0.62 16.95-2.77 19.86 11.28 0.01 0.08 0.03 0.15 0.05 0.22 0.08-0.18 0.16-0.38 0.25-0.59 0.04-0.1 0.09-0.2 0.13-0.31 0.97-2.27 2.02-4.56 2.51-7.06C123.93 126.52 115.3 121.36 109.15 121.36zM119.66 141.92c-1.54-14.71-12.16-11.49-20.06-11.91 -5.88-0.22-10.44-0.85-14.95 2.23 -3.33 2.74-4.26 6.2-4.26 10.61 -7.32-12.58 4.24-22.14 12.55-20.57 3.98 0.87 5.66 2.25 10.84 0.96 1.21-0.3 4.72-1.27 6.2-0.9 5.17 0.42 10.29 4.09 11.59 8.08C122.85 134.19 120.53 139.41 119.66 141.92z" fill="#000000" stroke-width="none" opacity="1"></path></g></g><g id="svga-group-hair-front" transform="matrix(1,0,0,1,0,0)"><path id="SvgjsPath5912" d="M152.176 96.021c-4.33-11.451-2.396-20.042-3.227-37.21 -1.283-26.428-7.483-23.179-21.749-24.214C105.156 33 97.497 22.794 81.063 22.794c-8.887 0-19.24 4.048-27.173 11.001 -6.378 43.485 2.638 39.87-6.744 61.845 -5.953-6.247-6.721-15.865-11.134-28.495 -3.519-10.451-2.658-11.011-6.527-16.049 2.484 0.449 2.734 0.429 3.842 0.429 -1.97-4.306-4.479-11.951-5.429-15.273 2.329-1.116 4.839-3.909 6.47-5.919 -0.931-2.128-1.646-4.554-2.079-6.625 0.077-0.026 0.438-0.16 0.438-0.16l0.004-0.017c5.681-2.417 6.84-15.944 10.785-19.389 1.941-1.814 3.806-2.531 5.534-3.446 0.204-1.895 0.295-2.277 0.575-3.63 9.402-2.521 12.254-1.199 25.53-4.893 4.564-1.27 7.709-2.153 17.317-1.75 3.525 1.779 16.06 10.479 25.484 1.602 7.254 4.527 13.574 5.105 22.624 10.252 15.179 8.89 17.244 15.147 16.352 29.56 10.493 13.965 8.167 30.567 3.577 47.23C157.639 89.383 154.886 92.761 152.176 96.021z" fill="#2a232b" stroke-width="none" opacity="1" stroke="none"></path><path id="SvgjsPath5913" d="M152 82c-1-8 3-15 4-22 -1 2-3 3-3 5 0-7 3-13 2-20 -1 2-2 3-4 4 3-7 0-15-5-21 1 3 2 5 2 8 -6-9-20-10-30-15 2 3 6 5 9 7 -14-5-27-11-40-17 2.206 2.206 3.875 6.024 6.589 7.499 1.143 0.163 0.978 0.531 0 0C81.581 16.79 68.958 15.479 58 10c0 4 3 7 6 9 -3 0-6-3-8-2 -3 2 3 4 2 6 -3 2-6-1-9-1 2 3 0 8 2 11 -2-1-4-3-4-2 -1 4-3 5-3 8 0 5 3 10 3 15 0-1.608-1.938-1.279-2.697-2.127 5.009 13.975 4.782 28.692 2.606 43.497 0.082 0.089 0.154 0.184 0.237 0.271 9.382-21.975 0.366-18.36 6.744-61.845 7.933-6.953 18.286-11.001 27.173-11.001 16.435 0 24.094 10.207 46.138 11.802 14.266 1.036 20.466-2.214 21.749 24.214 0.83 17.168-1.104 25.759 3.227 37.21 0.005-0.005 0.009-0.011 0.014-0.016C152.841 88.595 155 81.796 155 75 154 77 153 79 152 82z" fill="#0c080c" stroke-width="none" opacity="1" stroke="none"></path><path id="SvgjsPath5914" d="M159.263 71.488C158.954 72.145 157 72.343 157 73c0-3 3.516-5.243 2.924-10.264 0 0.396-3.158 2.95-3.475 3.346 -0.206 1 4.288-10.681 4.288-14.542C159.263 53.999 158 54 158 56c0-4-0.006-9.854-0.006-13.854 0 2-1.994 4.949-1.994 6.949 0.933-7.464-3.404-16.095-4.28-23.501 -0.511 1.795-1.479 3.889-0.72 5.406 -3-4-2-11-7-14 -1 2-1 4-2 6 -3-4-7-7-9-11 0 2 0 3 0 5 -5-4-12-6-15-12 0 2 0 5 0 7 -4-1-10.495-4.596-12.495-7.596C105.505 7.404 109 12 109 15c-8-4-14-10-22-14 0 2 2 4 1 6 -4-2-11.771-2-13.771-6 0 3 3.11 6 3.11 9 -9-1-11.009-3.822-19.242-7.596C57.097 4.404 56 7 55 9c-2-2-3-4-6-4 0 3 3 7 1 10 -1 1-5-3-5-2 -2 4 0 10-2 14 0 1-3-2-5-1 3.872 5.807 1.202 12.548 3.745 18.416C41.843 44.598 41.93 44.79 42 45c-0.096-0.193-0.17-0.389-0.255-0.584C40.452 41.988 36.93 41.79 36 39c0 7.303 4.157 13.774 5.645 20.932C42.15 60.233 42.404 60.788 42 62c-0.087-0.697-0.214-1.385-0.355-2.068C40.897 59.486 39.596 59.596 39 59c4.728 9.455 6.191 25.673 7.909 36.369 3.545-15.374 1.709-31.456-2.606-43.497C44.118 51.666 44 51.392 44 51c0.109 0.29 0.198 0.582 0.303 0.873C45.063 52.721 47 52.392 47 54c0-5-3-10-3-15 0-3 2-4 3-8 0-1 2 1 4 2 -2-3 0-8-2-11 3 0 6 3 9 1 1-2-5-4-2-6 2-1 5 2 8 2 -3-2-6-5-6-9 10.958 5.479 23.581 6.79 35.589 8.499C90.875 17.024 89.206 13.206 87 11c13 6 26 12 40 17 -3-2-7-4-9-7 10 5 24 6 30 15 0-3-1-5-2-8 5 6 8 14 5 21 2-1 3-2 4-4 1 7-2 13-2 20 0-2 2-3 3-5 -1 7-5 14-4 22 1-3 2-5 3-7 0 6.796-2.159 13.595-2.811 21.004 0.814-0.979 1.633-1.975 2.457-3.163C154.545 85.429 157.479 79.338 159.263 71.488z" fill="#1b141c" stroke-width="none" opacity="1" stroke="none"></path><path id="SvgjsPath5915" d="M93.119 18.235c-1.128 0.089-2.468 0.279-4.94-0.096 -6.698-0.927-28.617-1.793-29.81-8.654 1.055 3.353 7.405 4.299 12.204 5.198 0 0 3.382 0.651 8.723 1.251C89.291 17.101 87.179 17.888 93.119 18.235zM115.897 23.746C92 13.389 93.7 14.531 88.119 10.985c7.333 6.156 9.839 6.172 22.619 12.018 5.921 2.667 7.078 2.561 15.131 4.482C120.224 25.241 119.559 25.287 115.897 23.746zM118.619 20.735c9.914 8.153 22.008 6.125 29.75 15C142.164 25.918 128.518 26.908 118.619 20.735zM59.905 17.331c-2.668-0.805-3.997-0.43-5.286 0.404 4.225-1.989 8.651 2.923 13.75 1.5C66.006 19.523 59.905 17.53 59.905 17.331zM57.051 23.932c-2.328-0.734-5.203-1.979-7.151-1.927 -1.03 0.024-1.281 0.48-1.281 0.48 0.975-1.139 5.609 1.099 8.396 1.626 0.766 0.16 1.354 0.123 1.354 0.123S57.783 24.176 57.051 23.932zM45.652 35.678c0.687-1.892 1.461-3.751 1.256-5.482 -0.104-0.627-0.309-0.955-0.289-0.96 0.464 1.973-0.313 3.175-1.68 6.136 -3.015 6.453 0.924 11.484 2.43 18.364C46.86 45.866 43.166 42.389 45.652 35.678zM154.369 45.985c0.32 2.168 0.225 3.63-0.154 7.075 0 0-0.695 5.779-2.096 11.425C154.198 59.638 155.94 51.389 154.369 45.985zM155.869 61.485c-3.387 9.387-3.936 12.846-4.5 20.25C155.099 64.497 153.284 73.154 155.869 61.485z" fill="#2a232b" stroke-width="none" opacity="1" stroke="none"></path><path id="SvgjsPath5916" d="M114.869-1.765c-6.126 0.965-12.52 1.734-24-5.25C101.949-1.999 107.334-1.517 114.869-1.765zM128.401 0.19c-6.076-2.194-6.475-4.768-11.032-6.205 4.159 1.884 4.127 4.303 9.559 6.761 2.642 1.249 11.822 3.782 17.441 7.439C139.405 3.794 136.066 3.059 128.401 0.19zM60.619-2.015c11.593 0.241 13.441-2.719 26.75-4.25C75.403-6.414 74.136-3.561 60.619-2.015zM90.869-1.765c4.669 0.559 11.405 4.746 13.5 9.5C102.84 2.405 96.201-1.735 90.869-1.765zM116.869-0.265c4.652 2.475 6.308 7.699 12 8.75C123.284 6.637 122.178 1.803 116.869-0.265zM108.869 0.735c1.193 2.033 2.93 4.107 7.5 7C111.036 3.353 110.121 2.431 108.869 0.735zM132.119 5.485c5.115 0.627 10.451 5.663 11 11.25C143.375 11.229 138.428 5.581 132.119 5.485zM149.458 14.007c-2.307-2.946-4.339-3.642-5.339-4.022 1.428 0.741 2.997 1.725 4.866 4.386 0 0 3.437 4.57 4.884 9.614C152.871 17.907 149.458 14.007 149.458 14.007zM54.369-0.265c0.185-0.391 5.324 1.866 5.73 2.03 1.229 0.479 7.383 2.967 9.52 3.22C68.618 4.717 54.423-1.414 54.369-0.265zM45.869 5.985c0.682 0.896 1.458 2.263 2.01 3.245 0 0 0.296 0.523 0.571 1.059 0.27 0.537 0.51 1.086 0.51 1.086C49.634 12.912 49.955 13.861 50 15 50.252 12.019 47.702 7.872 45.869 5.985zM42.869 8.985c-2.517 6.149-2.489 9.708 0 16C41.306 18.681 40.986 15.697 42.869 8.985z" fill="#3a353a" stroke-width="none" opacity="1" stroke="none"></path><path id="SvgjsPath5917" d="M157.239 31.745c0.228-3.5 0.323-5.684 0.02-9.14 -1.138-10.129-7.217-15.136-16.529-20.59 -9.158-5.208-15.513-5.751-22.811-10.37 -9.334 9.042-21.935 0.184-25.37-1.52 -16.776-0.716-14.191 2.518-32.75 4.78 -6.844 0.773-9.67 1.72-9.67 1.72 -0.26 0.07-0.52 0.13-0.76 0.2 -0.2 1-0.381 1.616-0.6 3.68 -1.516 0.801-3.484 1.572-5.45 3.41 -4.048 3.536-5.212 17.195-10.83 19.39v0.01c-0.118 0.043-0.428 0.163-0.55 0.18 0.419 2.096 1.188 4.75 2.08 6.79 -1.594 1.959-4.17 4.807-6.48 5.8 0.546 1.98 3.313 10.751 5.32 15.14 -1.1 0-2.003-0.194-4.09-0.56 4.388 5.578 3.281 5.653 6.96 16.58 4.481 12.826 5.208 22.595 11.49 28.9 5.633-10.646 5.146-15.583 5.19-19.41 0.123-5.265-2.433-18.462 1.935-42.798 9.262-8.105 22.378-12.754 34.815-9.932 13.001 2.94 19.525 9.551 38.02 10.89 14.399 1.046 20.201-2.213 21.471 23.93 0.841 17.373-1.163 26.023 3.43 37.78 2.669-3.22 5.645-6.408 8.72-17.46C165.299 62.807 167.816 45.939 157.239 31.745zM161.02 70.726c-3.468 16.597-5.491 19.609-9.061 24.96 -2.882-8.88-2.093-17.47-1.8-26.59 1.486-39.246-8.424-34.825-22.86-35.92 -17.688-1.192-24.622-7.896-37.76-10.54 -11.972-2.45-25.25 0.755-36.35 11.16 -6.045 27.128 0.578 41.608-4.78 55.37 -1.162 2.943-0.429 3.694-1.28 5.84 -4.636-6.978-5.874-16.832-7.41-21.79 -4.784-12.176-4.632-16.171-9.84-21.97 1.271 0.277 2.91 0.457 4.21 0.24 -0.01-0.01-0.01-0.01-0.01-0.02 -0.332-1.001-4.524-12.47-5.75-15.33 2.387-1.152 4.729-3.746 6.35-5.83 -1.292-4.088 0.314 1.902-2.1-6.66 7.366-2.215 6.6-16.125 14.11-21.21 0.997-0.665 1.88-1.213 2.86-1.83 0.221-1.879 0.071-0.771 0.52-3.63 8.803-1.813 12.4-0.024 25.18-4.05 9.681-2.356 16.636-2.269 17.64-2.16 6.167 3.862 9.656 6.038 16.91 5.53 3.323-0.272 5.966-1.878 8.28-4.24 4.01 3.008 8.485 4.831 13.99 7.35 22.244 10.181 24.229 18.459 24.229 32.18 1.398 1.975 2.938 5.099 3.7 7.19C164.593 50.117 163.096 61.037 161.02 70.726z" fill="#000000" stroke-width="none" opacity="1" stroke="none"></path></g><g id="svga-group-glasses-single-move" transform="matrix(1,0,0,1,0,0)"><g id="svga-group-glasses-single" transform="matrix(1,0,0,1,0,0)"><path id="SvgjsPath5830" d="M100,18.13L100,18.13L100,18.13L100,18.13z" fill="#26120b" stroke-width="none" opacity="1" stroke="none"></path></g></g></g></g></g><rect id="svga-credit-rect" width="200" height="15" x="0" y="185" fill="#ecf0f1" opacity="0.5" style="display: none;"></rect><text id="svga-credit-text" font-family="Avenir Next, Roboto, Helvetica, Arial, sans-serif" font-size="10px" text-anchor="start" font-weight="400" size="10px" anchor="start" weight="400" fill="#333333" x="33.3125" y="182.609375" style="display: none;"><tspan id="SvgjsTspan4581" dy="13" x="33.3125">Created on AvatarMaker.com</tspan></text></g></svg>